<svg width="199" height="48" viewBox="0 0 199 48" fill="none" xmlns="http://www.w3.org/2000/svg">
<path d="M178.483 47.376C176.275 47.376 175.171 46.16 175.171 43.728C175.171 42.608 175.491 41.328 176.131 39.888C176.803 38.448 177.731 36.976 178.915 35.472C180.099 33.936 181.459 32.48 182.995 31.104L182.947 31.728C179.363 28.208 176.643 24.96 174.787 21.984C172.963 19.008 172.051 16.192 172.051 13.536C172.051 12 172.435 10.816 173.203 9.984C174.003 9.12 175.091 8.688 176.467 8.688C178.579 8.688 180.467 10.08 182.131 12.864C183.827 15.648 185.219 19.776 186.307 25.248H186.499C187.267 19.36 188.339 15.04 189.715 12.288C191.091 9.53601 192.723 8.16 194.611 8.16C195.763 8.16 196.627 8.56 197.203 9.36C197.811 10.128 198.115 11.216 198.115 12.624C198.115 13.648 197.955 14.912 197.635 16.416C197.315 17.888 196.851 19.52 196.243 21.312C195.635 23.104 194.915 24.976 194.083 26.928C193.251 28.88 192.323 30.816 191.299 32.736C188.579 37.792 186.211 41.488 184.195 43.824C182.179 46.192 180.275 47.376 178.483 47.376Z" fill="#4385BE"/>
<path d="M157.385 7.77637C160.073 7.77637 162.377 8.36781 164.297 9.55176C166.217 10.7038 167.641 12.464 168.569 14.832C169.305 16.688 169.833 18.8 170.153 21.168C170.473 23.536 170.633 26.0481 170.633 28.7041C170.633 31.2321 170.473 33.2004 170.153 34.6084C169.865 35.9842 169.385 36.9443 168.713 37.4883C168.041 38.0321 167.161 38.3037 166.073 38.3037C164.729 38.3037 163.785 37.8877 163.241 37.0557C162.839 36.4163 162.567 35.5057 162.428 34.3232C160.78 37.0722 158.013 38.4482 154.121 38.4482C152.105 38.4482 150.425 38.048 149.081 37.248C147.769 36.448 146.776 35.3921 146.104 34.0801C145.465 32.7681 145.145 31.3277 145.145 29.7598C145.145 27.0719 146.025 24.9439 147.785 23.376C149.545 21.8081 151.881 21.0244 154.793 21.0244C156.585 21.0244 158.153 21.3276 159.497 21.9355C160.247 22.2749 160.93 22.6927 161.551 23.1816C161.388 20.9612 160.913 19.3458 160.121 18.3359C159.225 17.1199 157.913 16.5117 156.185 16.5117C155.417 16.5118 154.633 16.6405 153.833 16.8965C153.033 17.1525 152.248 17.4081 151.48 17.6641C150.713 17.888 149.96 18 149.225 18C148.169 17.9999 147.336 17.6958 146.729 17.0879C146.153 16.4479 145.865 15.6315 145.865 14.6396C145.865 13.3278 146.393 12.1597 147.449 11.1357C148.537 10.1119 149.945 9.29642 151.673 8.68848C153.433 8.08049 155.337 7.77638 157.385 7.77637ZM157.041 27.2568C157.124 26.6759 156.498 26.2567 155.992 26.5547L151.244 29.3545C150.674 29.6905 150.845 30.5567 151.5 30.6504L153.396 30.9209C153.579 30.9472 153.745 31.0459 153.856 31.1943L155.044 32.7783C155.418 33.2772 156.208 33.0752 156.297 32.458L157.041 27.2568Z" fill="#4385BE"/>
<path d="M110.035 18.336C110.035 15.008 110.515 12.608 111.475 11.136C112.467 9.664 113.779 8.928 115.411 8.928C116.435 8.928 117.219 9.248 117.763 9.888C118.339 10.496 118.739 11.328 118.963 12.384C119.187 13.44 119.299 14.624 119.299 15.936C119.299 16.96 119.283 18.144 119.251 19.488C119.251 20.8 119.235 22.176 119.203 23.616C119.203 25.024 119.187 26.336 119.155 27.552H119.347C120.115 23.84 120.883 20.88 121.651 18.672C122.419 16.464 123.203 14.88 124.003 13.92C124.835 12.928 125.667 12.432 126.499 12.432C127.427 12.432 128.307 12.928 129.139 13.92C129.971 14.88 130.787 16.432 131.587 18.576C132.387 20.72 133.203 23.552 134.035 27.072H134.227C134.195 24.992 134.147 22.816 134.083 20.544C134.051 18.272 134.035 16.192 134.035 14.304C134.035 12.064 134.435 10.432 135.235 9.408C136.067 8.35201 137.203 7.82401 138.643 7.82401C140.371 7.82401 141.635 8.544 142.435 9.984C143.235 11.392 143.635 13.296 143.635 15.696C143.635 17.456 143.539 19.344 143.347 21.36C143.155 23.344 142.883 25.264 142.531 27.12C142.211 28.976 141.811 30.592 141.331 31.968C140.659 34.016 139.859 35.568 138.931 36.624C138.003 37.68 136.819 38.208 135.379 38.208C134.291 38.208 133.203 37.712 132.115 36.72C131.059 35.728 130.083 34.112 129.188 31.872C128.292 29.6 127.507 26.576 126.835 22.8H126.643C126.035 26.352 125.235 29.2 124.243 31.344C123.283 33.488 122.227 35.04 121.075 36C119.955 36.96 118.819 37.44 117.667 37.44C116.163 37.44 114.899 36.864 113.875 35.712C112.851 34.528 112.035 32.688 111.427 30.192C111.139 28.944 110.899 27.616 110.707 26.208C110.515 24.768 110.355 23.36 110.227 21.984C110.099 20.608 110.035 19.392 110.035 18.336Z" fill="#4385BE"/>
<path d="M88.1258 38.304C87.2298 38.304 86.5098 38.096 85.9658 37.68C85.4538 37.232 85.0698 36.56 84.8138 35.664C84.5578 34.64 84.3338 33.024 84.1418 30.816C83.9498 28.608 83.8538 26.192 83.8538 23.568C83.8538 20.208 83.9658 16.976 84.1898 13.872C84.4458 10.768 84.7658 8.224 85.1498 6.24C85.5658 4.064 86.1738 2.48 86.9738 1.488C87.8058 0.496 88.8618 0 90.1418 0C91.3898 0 92.3338 0.512 92.9738 1.536C93.6458 2.56 93.9818 4.32 93.9818 6.816C93.9818 8.416 93.9178 10.144 93.7898 12C93.6618 13.856 93.4378 15.824 93.1178 17.904H93.3098C94.8778 15.216 96.3338 13.12 97.6778 11.616C99.0538 10.112 100.318 9.056 101.47 8.448C102.654 7.808 103.726 7.488 104.686 7.488C106.062 7.488 107.086 7.904 107.758 8.736C108.43 9.568 108.766 10.592 108.766 11.808C108.766 13.632 107.806 15.408 105.886 17.136C103.998 18.864 101.07 20.608 97.1018 22.368L97.3418 21.6C99.7418 22.944 101.742 24.304 103.342 25.68C104.974 27.056 106.206 28.416 107.038 29.76C107.87 31.104 108.286 32.384 108.286 33.6C108.286 34.848 107.902 35.856 107.134 36.624C106.366 37.392 105.278 37.776 103.87 37.776C102.622 37.776 101.374 37.392 100.126 36.624C98.9098 35.856 97.7418 34.624 96.6218 32.928C95.5018 31.2 94.4458 28.928 93.4538 26.112H93.2618C93.2298 27.744 93.1178 29.328 92.9258 30.864C92.7338 32.4 92.5098 33.664 92.2538 34.656C91.9658 35.776 91.4858 36.672 90.8138 37.344C90.1738 37.984 89.2778 38.304 88.1258 38.304Z" fill="#4385BE"/>
<path d="M61.4475 17.328C61.4475 13.84 61.8315 11.328 62.5995 9.79201C63.3675 8.25601 64.4395 7.48801 65.8155 7.48801C66.8075 7.48801 67.5915 7.84001 68.1675 8.54401C68.7435 9.21601 69.1595 10.064 69.4155 11.088C69.6715 12.08 69.7995 13.088 69.7995 14.112L69.5595 14.016C70.1035 12.288 70.9195 10.8 72.0075 9.55201C73.1275 8.30401 74.4555 7.68001 75.9915 7.68001C77.9115 7.68001 79.3195 8.49601 80.2155 10.128C81.1435 11.728 81.6075 13.728 81.6075 16.128C81.6075 19.328 81.1595 21.568 80.2635 22.848C79.3995 24.128 78.2315 24.768 76.7595 24.768C75.6715 24.768 74.8715 24.4 74.3595 23.664C73.8795 22.928 73.7035 21.712 73.8315 20.016C73.8955 18.576 73.8155 17.584 73.5915 17.04C73.3995 16.464 73.0795 16.176 72.6315 16.176C72.0555 16.176 71.6075 16.56 71.2875 17.328C70.9675 18.064 70.8075 19.024 70.8075 20.208C70.8075 20.88 70.8875 21.712 71.0475 22.704C71.2075 23.696 71.3835 24.784 71.5755 25.968C71.7675 27.152 71.9435 28.336 72.1035 29.52C72.2635 30.672 72.3435 31.728 72.3435 32.688C72.3435 34.576 71.9435 35.92 71.1435 36.72C70.3755 37.52 69.2875 37.92 67.8795 37.92C66.4715 37.92 65.3355 37.536 64.4715 36.768C63.6395 35.968 63.0635 34.656 62.7435 32.832C62.5195 31.584 62.2955 30.048 62.0715 28.224C61.8795 26.368 61.7195 24.48 61.5915 22.56C61.4955 20.608 61.4475 18.864 61.4475 17.328Z" fill="#4385BE"/>
<path d="M24.432 38.208C23.472 38.208 22.624 38.016 21.888 37.632C21.184 37.216 20.64 36.512 20.256 35.52C19.872 34.496 19.68 33.072 19.68 31.248C19.68 29.36 19.776 27.36 19.968 25.248C20.16 23.104 20.4 20.944 20.688 18.768C21.008 16.56 21.296 14.432 21.552 12.384H21.36C20.464 16.544 19.472 19.6 18.384 21.552C17.296 23.472 16.08 24.432 14.736 24.432C13.904 24.432 13.136 24.08 12.432 23.376C11.76 22.672 11.104 21.424 10.464 19.632C9.856 17.808 9.2 15.232 8.496 11.904H8.304C8.464 13.312 8.624 14.8 8.784 16.368C8.976 17.936 9.152 19.52 9.312 21.12C9.504 22.72 9.648 24.24 9.744 25.68C9.84 27.12 9.888 28.4 9.888 29.52C9.888 30.896 9.744 32.144 9.456 33.264C9.168 34.384 8.656 35.28 7.92 35.952C7.216 36.592 6.24 36.912 4.992 36.912C3.296 36.912 2.032 36.336 1.2 35.184C0.4 34.032 0 32.128 0 29.472C0 28.224 0.0320001 26.768 0.0960001 25.104C0.192 23.408 0.304 21.664 0.432 19.872C0.56 18.08 0.72 16.336 0.912 14.64C1.104 12.944 1.312 11.472 1.536 10.224C1.952 7.72801 2.592 5.95201 3.456 4.89601C4.352 3.84001 5.504 3.31201 6.912 3.31201C7.936 3.31201 8.912 3.68001 9.84 4.41601C10.8 5.12001 11.712 6.40001 12.576 8.25601C13.44 10.08 14.224 12.672 14.928 16.032H15.12C15.76 12.576 16.48 9.85601 17.28 7.87201C18.08 5.88801 18.928 4.48001 19.824 3.64801C20.72 2.81601 21.648 2.40001 22.608 2.40001C24.112 2.40001 25.28 2.96001 26.112 4.08001C26.976 5.16801 27.648 6.72001 28.128 8.73601C28.544 10.592 28.896 12.736 29.184 15.168C29.504 17.6 29.744 20.096 29.904 22.656C30.064 25.184 30.144 27.552 30.144 29.76C30.144 32.864 29.616 35.056 28.56 36.336C27.536 37.584 26.16 38.208 24.432 38.208Z" fill="#4385BE"/>
<path d="M44.9316 7.77637C47.6196 7.77637 49.9238 8.3678 51.8438 9.55176C53.7638 10.7038 55.1882 12.464 56.1162 14.832C56.8522 16.688 57.3802 18.8 57.7002 21.168C58.0202 23.536 58.1797 26.0481 58.1797 28.7041C58.1797 31.2321 58.0202 33.2004 57.7002 34.6084C57.4122 35.9842 56.9317 36.9443 56.2598 37.4883C55.5879 38.0322 54.7079 38.3036 53.6201 38.3037C52.2761 38.3037 51.3321 37.8877 50.7881 37.0557C50.3856 36.4163 50.1143 35.5057 49.9746 34.3232C48.3273 37.0722 45.5598 38.4482 41.668 38.4482C39.652 38.4482 37.9719 38.048 36.6279 37.248C35.3159 36.448 34.3234 35.3921 33.6514 34.0801C33.0114 32.7681 32.6914 31.3277 32.6914 29.7598C32.6915 27.0719 33.5721 24.9439 35.332 23.376C37.092 21.8081 39.4279 21.0244 42.3398 21.0244C44.1318 21.0244 45.7 21.3276 47.0439 21.9355C47.7942 22.275 48.477 22.6927 49.0977 23.1816C48.9347 20.9612 48.4595 19.3458 47.668 18.3359C46.772 17.1199 45.4594 16.5117 43.7314 16.5117C42.9635 16.5118 42.1798 16.6405 41.3799 16.8965C40.5799 17.1525 39.7953 17.4081 39.0273 17.6641C38.2595 17.888 37.5074 18 36.7715 18C35.7156 18 34.8833 17.6958 34.2754 17.0879C33.6995 16.4479 33.4121 15.6315 33.4121 14.6396C33.4122 13.3278 33.9402 12.1597 34.9961 11.1357C36.084 10.1119 37.492 9.29641 39.2197 8.68848C40.9797 8.08049 42.8837 7.77638 44.9316 7.77637ZM44.8438 27.2441C45.0135 26.6823 44.4579 26.1731 43.9131 26.3916L38.79 28.4463C38.1764 28.6928 38.2154 29.5743 38.8486 29.7656L40.6846 30.3203C40.8622 30.374 41.0109 30.4966 41.0986 30.6602L42.0361 32.4072C42.3308 32.9569 43.1429 32.8763 43.3232 32.2793L44.8438 27.2441Z" fill="#4385BE"/>
</svg>
